<svg xmlns="http://www.w3.org/2000/svg" width="256" height="256" viewBox="0 0 100 100"><rect width="100" height="100" rx="50" fill="#1c00ce"></rect><path d="M52.31 51.65L52.31 51.65Q52.31 47.29 49.82 45.24Q47.33 43.19 43.15 43.19L43.15 43.19Q37.36 43.19 32.82 47.29L32.82 47.29Q33.36 49.07 33.36 51.11L33.36 51.11L33.36 79.41Q32.91 79.59 31.98 79.81Q31.04 80.04 30.06 80.04L30.06 80.04Q26.24 80.04 26.24 76.83L26.24 76.83L26.24 51.65Q26.24 47.29 23.75 45.24Q21.25 43.19 16.98 43.19L16.98 43.19Q14.13 43.19 11.60 44.08Q9.06 44.97 7.28 46.13L7.28 46.13L7.28 79.41Q6.84 79.59 5.95 79.81Q5.06 80.04 3.99 80.04L3.99 80.04Q0.16 80.04 0.16 76.83L0.16 76.83L0.16 46.48Q0.16 44.70 0.92 43.50Q1.67 42.30 3.54 41.06L3.54 41.06Q5.95 39.54 9.64 38.43Q13.33 37.32 17.07 37.32L17.07 37.32Q21.43 37.32 24.81 38.61Q28.20 39.90 29.97 42.12L29.97 42.12Q32.29 40.08 35.76 38.70Q39.23 37.32 43.68 37.32L43.68 37.32Q50.89 37.32 55.16 40.74Q59.43 44.17 59.43 51.29L59.43 51.29L59.43 79.41Q58.99 79.59 58.05 79.81Q57.12 80.04 56.14 80.04L56.14 80.04Q52.31 80.04 52.31 76.83L52.31 76.83L52.31 51.65ZM79.99 35.18L79.99 40.79L97.61 40.79Q97.88 41.23 98.15 41.95Q98.42 42.66 98.42 43.64L98.42 43.64Q98.42 46.57 95.66 46.57L95.66 46.57L80.08 46.57L80.08 79.41Q79.64 79.59 78.75 79.81Q77.86 80.04 76.79 80.04L76.79 80.04Q72.96 80.04 72.96 76.83L72.96 76.83L72.96 34.83Q72.96 26.99 77.19 23.48Q81.42 19.96 88.98 19.96L88.98 19.96Q94.05 19.96 96.95 21.30Q99.84 22.63 99.84 24.59L99.84 24.59Q99.84 26.55 98.33 27.88L98.33 27.88Q96.72 26.99 94.32 26.42Q91.92 25.84 89.69 25.84L89.69 25.84Q84.26 25.84 82.13 28.06Q79.99 30.29 79.99 35.18L79.99 35.18Z" fill="#fff"></path></svg>